<?xml version="1.0" encoding="UTF-8" standalone="no"?>
<!-- Created with Inkscape (http://www.inkscape.org/) -->

<svg
   version="1.1"
   id="svg2"
   xml:space="preserve"
   width="11in"
   height="8.5in"
   viewBox="0 0 1056 816"
   sodipodi:docname="template-door-switch-1.svg"
   inkscape:version="1.1.2 (b8e25be833, 2022-02-05)"
   xmlns:inkscape="http://www.inkscape.org/namespaces/inkscape"
   xmlns:sodipodi="http://sodipodi.sourceforge.net/DTD/sodipodi-0.dtd"
   xmlns:xlink="http://www.w3.org/1999/xlink"
   xmlns="http://www.w3.org/2000/svg"
   xmlns:svg="http://www.w3.org/2000/svg"><defs
     id="defs6"><linearGradient
       id="linearGradient1773"
       inkscape:swatch="solid"><stop
         style="stop-color:#000000;stop-opacity:1;"
         offset="0"
         id="stop1771" /></linearGradient><clipPath
       clipPathUnits="userSpaceOnUse"
       id="clipPath16"><path
         d="M 0,700.005 H 850 V 0 H 0 Z"
         id="path14" /></clipPath><linearGradient
       inkscape:collect="always"
       xlink:href="#linearGradient1773"
       id="linearGradient1775"
       x1="-0.5"
       y1="207"
       x2="0.5"
       y2="207"
       gradientUnits="userSpaceOnUse" /><linearGradient
       inkscape:collect="always"
       xlink:href="#linearGradient1773"
       id="linearGradient1777"
       x1="-54.783"
       y1="23.3855"
       x2="118.187"
       y2="23.3855"
       gradientUnits="userSpaceOnUse" /><linearGradient
       inkscape:collect="always"
       xlink:href="#linearGradient1773"
       id="linearGradient1779"
       x1="-128.785"
       y1="34.7515"
       x2="44.186"
       y2="34.7515"
       gradientUnits="userSpaceOnUse" /><linearGradient
       inkscape:collect="always"
       xlink:href="#linearGradient1773"
       id="linearGradient1781"
       x1="-32.002"
       y1="-4.782052"
       x2="22.112"
       y2="-4.782052"
       gradientUnits="userSpaceOnUse" /><linearGradient
       inkscape:collect="always"
       xlink:href="#linearGradient1773"
       id="linearGradient1783"
       x1="-32.002"
       y1="-4.782052"
       x2="22.112"
       y2="-4.782052"
       gradientUnits="userSpaceOnUse" /><linearGradient
       inkscape:collect="always"
       xlink:href="#linearGradient1773"
       id="linearGradient1785"
       x1="-21.592"
       y1="-5.908"
       x2="32.092"
       y2="-5.908"
       gradientUnits="userSpaceOnUse" /><linearGradient
       inkscape:collect="always"
       xlink:href="#linearGradient1773"
       id="linearGradient1787"
       x1="-30.631"
       y1="-4.4465"
       x2="23.053"
       y2="-4.4465"
       gradientUnits="userSpaceOnUse" /><linearGradient
       inkscape:collect="always"
       xlink:href="#linearGradient1773"
       id="linearGradient1789"
       x1="-31.188"
       y1="-26.396"
       x2="23.563"
       y2="-26.396"
       gradientUnits="userSpaceOnUse" /><linearGradient
       inkscape:collect="always"
       xlink:href="#linearGradient1773"
       id="linearGradient1791"
       x1="-31.188"
       y1="-26.396"
       x2="23.563"
       y2="-26.396"
       gradientUnits="userSpaceOnUse" /><linearGradient
       inkscape:collect="always"
       xlink:href="#linearGradient1773"
       id="linearGradient1793"
       x1="-185.22"
       y1="-31"
       x2="24.114"
       y2="-31"
       gradientUnits="userSpaceOnUse" /></defs><sodipodi:namedview
     id="namedview4"
     pagecolor="#505050"
     bordercolor="#eeeeee"
     borderopacity="1"
     inkscape:pageshadow="0"
     inkscape:pageopacity="0"
     inkscape:pagecheckerboard="0"
     showgrid="false"
     units="in"
     inkscape:zoom="0.90106497"
     inkscape:cx="548.79506"
     inkscape:cy="544.91076"
     inkscape:window-width="1920"
     inkscape:window-height="1027"
     inkscape:window-x="-8"
     inkscape:window-y="-8"
     inkscape:window-maximized="1"
     inkscape:current-layer="g12"
     inkscape:document-units="in" /><g
     id="g8"
     inkscape:groupmode="layer"
     inkscape:label="template-door-switch"
     transform="matrix(1.3333333,0,0,-1.3333333,0,933.34)"><g
       id="g10"><g
         id="g12"
         clip-path="url(#clipPath16)"
         style="fill:#000000;fill-opacity:1"><g
           id="g18"
           transform="translate(198.1694,519.8456)"
           style="fill:none;fill-opacity:1;stroke:url(#linearGradient1793)"><path
             d="m 0,0 c -1.377,11.082 -4.291,24.961 -5.06,45 -1.196,27.416 2.135,47.829 4.639,63.001 C 5.781,145.586 21.18,151 21.18,151 l 2.934,11 h -47.417 l -0.918,-9 v -284.5 c 0,-11.874 -9.626,-21.5 -21.5,-21.5 h -70.893 c -11.934,0 -21.607,9.674 -21.607,21.607 v 26.906 l 17.892,-3 v 55.853 c -0.61,-0.065 -1.229,-0.103 -1.857,-0.103 -7.305,0 -13.522,4.551 -16.035,10.965 v 34.17 l 18,-3 v 61.854 c -0.611,-0.065 -1.23,-0.104 -1.858,-0.104 -7.412,0 -13.704,4.687 -16.142,11.251 v 83.934 l -1,14.667 h -27.576 -12.134 c 0,0 -0.824,-13.485 -1.351,-14.032 -4.214,-4.373 -3.938,-10.882 -3.938,-16.568 0,0 -1,-86.253 -1,-128.327 0,-42.075 1,-112.073 1,-112.073 l 9,-115 c 0,0 146.5,27 152.999,29.581 6.498,2.58 37.001,12.919 44.001,41.251 4,10.168 -2.081,73.147 -2.081,73.147 L 18.53,-59.125 C 18.53,-59.125 5.114,-42.333 0,0"
             style="fill:none;fill-opacity:1;fill-rule:nonzero;stroke:url(#linearGradient1793)"
             id="path20" /></g><g
           id="g22"
           transform="translate(129.0264,546.8138)"
           style="fill:none;fill-opacity:1;stroke:url(#linearGradient1791)"><path
             d="m 0,0 h -7.625 c -0.791,0 -1.438,0.647 -1.438,1.437 0,0.791 0.647,1.438 1.438,1.438 H 0 C 0.791,2.875 1.437,2.228 1.437,1.437 1.437,0.647 0.791,0 0,0 m -31.188,-72.836 h 54.751 v 92.88 h -54.751 z"
             style="fill:none;fill-opacity:1;fill-rule:nonzero;stroke:url(#linearGradient1791)"
             id="path24" /></g><g
           id="g26"
           transform="translate(129.0264,449.4462)"
           style="fill:none;fill-opacity:1;stroke:url(#linearGradient1789)"><path
             d="m 0,0 h -7.625 c -0.791,0 -1.438,0.647 -1.438,1.437 0,0.791 0.647,1.438 1.438,1.438 H 0 C 0.791,2.875 1.437,2.228 1.437,1.437 1.437,0.647 0.791,0 0,0 m -31.188,-72.836 h 54.751 v 92.88 h -54.751 z"
             style="fill:none;fill-opacity:1;fill-rule:nonzero;stroke:url(#linearGradient1789)"
             id="path28" /></g><g
           id="g30"
           transform="translate(128.9648,600.307)"
           style="fill:none;fill-opacity:1;stroke:url(#linearGradient1787)"><path
             d="m 0,0 h -7.578 c -0.803,0 -1.461,0.658 -1.461,1.461 0,0.804 0.658,1.461 1.461,1.461 H 0 C 0.803,2.922 1.461,2.265 1.461,1.461 1.461,0.658 0.803,0 0,0 m -30.631,20.068 0.077,-47.24 c -0.042,-0.975 0.737,-1.789 1.714,-1.789 H 2.361 c 11.428,0 18.692,9.264 18.692,20.692 l 2,28.337 z"
             style="fill:none;fill-opacity:1;fill-rule:nonzero;stroke:url(#linearGradient1787)"
             id="path32" /></g><g
           id="g34"
           transform="translate(119.9639,655.285)"
           style="fill:none;fill-opacity:1;stroke:url(#linearGradient1785)"><path
             d="M 0,0 C 0,0.803 0.658,1.461 1.461,1.461 H 9.039 C 9.842,1.461 10.5,0.803 10.5,0 10.5,-0.804 9.842,-1.461 9.039,-1.461 H 1.461 C 0.658,-1.461 0,-0.804 0,0 m -21.592,18.606 2,-28.336 c 0,-11.428 7.264,-20.692 18.692,-20.692 h 31.201 c 0.977,0 1.756,0.814 1.714,1.789 l 0.077,47.239 z"
             style="fill:none;fill-opacity:1;fill-rule:nonzero;stroke:url(#linearGradient1785)"
             id="path36" /></g><g
           id="g46"
           transform="translate(430.5327,558.9257)"
           style="fill:none;fill-opacity:1;stroke:url(#linearGradient1783)"><path
             d="M 0,0 C 0.013,0.743 -0.634,1.363 -1.435,1.527 L -1.473,1.528 -9.012,1.66 h -0.037 c -0.806,-0.137 -1.474,-0.733 -1.488,-1.476 -0.013,-0.743 0.634,-1.362 1.435,-1.523 l 0.038,-0.001 7.539,-0.132 h 0.038 C -0.681,-1.339 -0.013,-0.743 0,0 m 7.005,-28.625 -25.542,0.446 c -7.375,0.129 -12.284,6.033 -12.314,13.309 l -1.151,33.933 54.114,-0.944 -2.336,-33.872 c -0.283,-7.272 -5.395,-13 -12.771,-12.872"
             style="fill:none;fill-opacity:1;fill-rule:nonzero;stroke:url(#linearGradient1783)"
             id="path48" /></g><g
           id="g50"
           transform="translate(429.5327,495.9257)"
           style="fill:none;fill-opacity:1;stroke:url(#linearGradient1781)"><path
             d="M 0,0 C 0.013,0.743 -0.634,1.363 -1.435,1.527 L -1.473,1.528 -9.012,1.66 h -0.037 c -0.806,-0.137 -1.474,-0.733 -1.488,-1.476 -0.013,-0.743 0.634,-1.362 1.435,-1.523 l 0.038,-0.001 7.539,-0.132 h 0.038 C -0.681,-1.339 -0.013,-0.743 0,0 m 7.005,-28.625 -25.542,0.446 c -7.375,0.129 -12.284,6.033 -12.314,13.309 l -1.151,33.933 54.114,-0.944 -2.336,-33.872 c -0.283,-7.272 -5.395,-13 -12.771,-12.872"
             style="fill:none;fill-opacity:1;fill-rule:nonzero;stroke:url(#linearGradient1781)"
             id="path52" /></g><g
           id="g54"
           transform="translate(558.2998,447.0946)"
           style="fill:none;fill-opacity:1;stroke:url(#linearGradient1779)"><path
             d="m 0,0 -2.634,-75.446 c -0.27,-7.721 -6.748,-13.762 -14.469,-13.492 l -28.862,1.007 c -7.722,0.27 -13.762,6.748 -13.492,14.469 l 2.635,75.446 c 0.269,7.722 3.644,10.869 11.365,10.599 l 34.858,-1.217 C -2.877,11.096 0.27,7.721 0,0 m 41.29,151.565 c -0.387,12.435 -4.221,38.051 -4.921,42.646 -0.017,0.118 0.037,4.716 0.593,6.715 0.557,2 7.224,14.5 7.224,14.5 0,0 -2.421,7.58 -2.877,9.79 -0.457,2.21 -1.049,9.71 -1.049,9.71 h -169.045 l 3.064,-46.731 c 0.21,-4.409 1.002,-9.499 3.869,-12.269 1.038,-0.682 13.538,-8.348 17.391,-22.572 1.629,-6.011 5.302,-13.855 7.211,-25.428 2.504,-15.172 2.675,-50.486 1.639,-63 -1.037,-12.515 -6.203,-54.182 -8.203,-64.348 -2,-10.167 -7.417,-33.75 -7.417,-33.75 0,0 -2.083,-10.25 -7.139,-17.924 -0.611,-4.66 -2.081,-51.978 1.919,-62.147 7,-28.331 37.503,-35.67 44.001,-38.251 6.499,-2.58 107.643,-13.929 107.643,-13.929 l 3.356,99.349 c 0,0 4,69.997 4,112.072 0,18.767 0.402,46.324 -0.259,71.096 -0.34,12.756 -0.698,24.773 -1,34.471"
             style="fill:none;fill-opacity:1;fill-rule:nonzero;stroke:url(#linearGradient1779)"
             id="path56" /></g><g
           id="g58"
           transform="translate(300.2983,458.4603)"
           style="fill:none;fill-opacity:1;stroke:url(#linearGradient1777)"><path
             d="M 0,0 34.859,1.217 C 42.58,1.487 45.955,-1.66 46.224,-9.381 l 2.635,-75.447 c 0.269,-7.721 -5.771,-14.199 -13.492,-14.468 l -28.863,-1.008 c -7.721,-0.27 -14.198,5.771 -14.468,13.492 l -2.635,75.446 C -10.868,-3.645 -7.721,-0.27 0,0 m -52.889,105.728 c -0.661,-24.771 -0.257,-52.329 -0.257,-71.096 0,-42.075 4,-112.072 4,-112.072 l 3.354,-99.349 c 0,0 101.146,11.349 107.644,13.93 6.498,2.58 37.002,9.919 44.002,38.25 4,10.169 2.529,57.487 1.918,62.148 -5.055,7.673 -7.139,17.923 -7.139,17.923 0,0 -5.416,23.583 -7.416,33.75 -2,10.166 -7.167,51.833 -8.204,64.348 -1.036,12.515 -0.865,47.829 1.639,63.001 1.91,11.572 5.582,19.417 7.211,25.428 3.854,14.223 16.354,21.889 17.39,22.571 2.868,2.771 3.66,7.86 3.87,12.27 l 3.064,46.73 H -50.858 c 0,0 -0.592,-7.5 -1.048,-9.71 -0.457,-2.209 -2.877,-9.79 -2.877,-9.79 0,0 6.666,-12.5 7.222,-14.499 0.557,-2 0.611,-6.598 0.593,-6.715 -0.7,-4.596 -4.533,-30.211 -4.92,-42.646 -0.302,-9.699 -0.66,-21.716 -1.001,-34.472"
             style="fill:none;fill-opacity:1;fill-rule:nonzero;stroke:url(#linearGradient1777)"
             id="path60" /></g><g
           id="g112"
           transform="translate(232,285.5052)"
           style="fill:none;fill-opacity:1;stroke:url(#linearGradient1775)"><path
             d="M 0,0 V 414"
             style="fill:none;stroke:url(#linearGradient1775);stroke-width:1;stroke-linecap:butt;stroke-linejoin:miter;stroke-miterlimit:10;stroke-dasharray:none;stroke-opacity:1;fill-opacity:1"
             id="path114" /></g></g></g></g></svg>
