<?xml version="1.0" encoding="UTF-8" standalone="no"?>
<!-- Created with Inkscape (http://www.inkscape.org/) -->

<svg
   version="1.1"
   id="svg2"
   xml:space="preserve"
   width="8.5in"
   height="11in"
   viewBox="0 0 816 1056"
   sodipodi:docname="template-cupholder.svg"
   inkscape:version="1.1.2 (b8e25be833, 2022-02-05)"
   xmlns:inkscape="http://www.inkscape.org/namespaces/inkscape"
   xmlns:sodipodi="http://sodipodi.sourceforge.net/DTD/sodipodi-0.dtd"
   xmlns:xlink="http://www.w3.org/1999/xlink"
   xmlns="http://www.w3.org/2000/svg"
   xmlns:svg="http://www.w3.org/2000/svg"><defs
     id="defs6"><linearGradient
       id="linearGradient847"
       inkscape:swatch="solid"><stop
         style="stop-color:#000000;stop-opacity:1;"
         offset="0"
         id="stop845" /></linearGradient><clipPath
       clipPathUnits="userSpaceOnUse"
       id="clipPath16"><path
         d="M 0,792 H 612 V 0 H 0 Z"
         id="path14" /></clipPath><linearGradient
       inkscape:collect="always"
       xlink:href="#linearGradient847"
       id="linearGradient849"
       x1="27.9062"
       y1="394.1249"
       x2="587.9062"
       y2="394.1249"
       gradientUnits="userSpaceOnUse" /></defs><sodipodi:namedview
     id="namedview4"
     pagecolor="#505050"
     bordercolor="#eeeeee"
     borderopacity="1"
     inkscape:pageshadow="0"
     inkscape:pageopacity="0"
     inkscape:pagecheckerboard="0"
     showgrid="false"
     units="in"
     inkscape:zoom="0.39820076"
     inkscape:cx="460.82283"
     inkscape:cy="892.76575"
     inkscape:window-width="1340"
     inkscape:window-height="1050"
     inkscape:window-x="97"
     inkscape:window-y="21"
     inkscape:window-maximized="0"
     inkscape:current-layer="g8"
     inkscape:document-units="in" /><g
     id="g8"
     inkscape:groupmode="layer"
     inkscape:label="template-cupholder"
     transform="matrix(1.3333333,0,0,-1.3333333,0,1056)"><g
       id="g10"
       style="stroke:url(#linearGradient849);fill:none"><g
         id="g12"
         clip-path="url(#clipPath16)"
         style="stroke:url(#linearGradient849);fill:none"><g
           id="g18"
           transform="translate(164.5732,594.2729)"
           style="stroke:url(#linearGradient849);fill:none"><path
             d="m 0,0 c 32.829,-0.183 62.45,-11.891 83.588,-33.831 3.406,-3.534 8.076,-5.567 12.983,-5.567 h 93.63 c 4.84,0 9.448,2.003 12.804,5.491 21.142,21.984 50.795,33.724 83.662,33.907 63.921,0.357 111.767,-49.419 112.654,-113.334 0.908,-65.38 -46.817,-116.664 -111.988,-116.664 -33.06,0 -62.911,11.716 -84.188,33.763 -3.453,3.577 -8.181,5.637 -13.153,5.637 H 96.519 c -4.872,0 -9.511,-2.015 -12.89,-5.526 -21.284,-22.112 -51.18,-33.874 -84.296,-33.874 -65.17,0 -112.896,51.284 -111.988,116.664 C -111.767,-49.419 -63.921,0.357 0,0 m -98.25,-532.798 c 2.158,0 3.907,-1.731 3.907,-3.888 v -5.112 h 475.342 v 5.112 c 0,2.157 1.749,3.888 3.906,3.888 h 33.099 l 5.329,674.3 h -560 l 5.329,-674.3 z"
             style="fill:none;fill-opacity:1;fill-rule:nonzero;stroke:url(#linearGradient849)"
             id="path20" /></g><g
           id="g22"
           transform="translate(108.8604,466.8848)"
           style="stroke:url(#linearGradient849);fill:none"><path
             d="m 0,0 h 148.377 c 14.456,0 24.656,11.795 27.582,20.132 H -27.671 C -24.745,11.795 -15.521,0 0,0 m -1.242,-53.037 h 148.378 c 14.456,0 24.655,11.796 27.582,20.133 H -28.913 c 2.927,-8.337 12.239,-20.133 27.671,-20.133 m 0,105.009 h 148.378 c 14.456,0 24.655,11.796 27.582,20.132 H -28.913 c 2.927,-8.336 12.239,-20.132 27.671,-20.132"
             style="fill:none;fill-opacity:1;fill-rule:nonzero;stroke:url(#linearGradient849)"
             id="path24" /></g><g
           id="g26"
           transform="translate(359.9053,466.8848)"
           style="stroke:url(#linearGradient849);fill:none"><path
             d="m 0,0 h 148.378 c 14.456,0 24.655,11.795 27.582,20.132 H -27.671 C -24.744,11.795 -15.521,0 0,0 m -1.241,-53.037 h 148.378 c 14.456,0 24.655,11.796 27.582,20.133 H -28.912 c 2.927,-8.337 12.239,-20.133 27.671,-20.133 m 0,105.009 h 148.378 c 14.456,0 24.655,11.796 27.582,20.132 H -28.912 c 2.927,-8.336 12.239,-20.132 27.671,-20.132"
             style="fill:none;fill-opacity:1;fill-rule:nonzero;stroke:url(#linearGradient849)"
             id="path28" /></g></g></g></g></svg>
