<?xml version="1.0" encoding="UTF-8" standalone="no"?>
<!-- Created with Inkscape (http://www.inkscape.org/) -->

<svg
   version="1.1"
   id="svg2"
   xml:space="preserve"
   width="2832"
   height="509.33334"
   viewBox="0 0 2832 509.33334"
   sodipodi:docname="template-door-sill.svg"
   inkscape:version="1.1.2 (b8e25be833, 2022-02-05)"
   xmlns:inkscape="http://www.inkscape.org/namespaces/inkscape"
   xmlns:sodipodi="http://sodipodi.sourceforge.net/DTD/sodipodi-0.dtd"
   xmlns:xlink="http://www.w3.org/1999/xlink"
   xmlns="http://www.w3.org/2000/svg"
   xmlns:svg="http://www.w3.org/2000/svg"><defs
     id="defs6"><linearGradient
       id="linearGradient867"
       inkscape:swatch="solid"><stop
         style="stop-color:#000000;stop-opacity:1;"
         offset="0"
         id="stop865" /></linearGradient><clipPath
       clipPathUnits="userSpaceOnUse"
       id="clipPath16"><path
         d="M 0,382 H 2124 V 0 H 0 Z"
         id="path14" /></clipPath><linearGradient
       inkscape:collect="always"
       xlink:href="#linearGradient867"
       id="linearGradient869"
       x1="17.092275"
       y1="194.2541"
       x2="2106.9074"
       y2="194.2541"
       gradientUnits="userSpaceOnUse" /></defs><sodipodi:namedview
     id="namedview4"
     pagecolor="#505050"
     bordercolor="#eeeeee"
     borderopacity="1"
     inkscape:pageshadow="0"
     inkscape:pageopacity="0"
     inkscape:pagecheckerboard="0"
     showgrid="false"
     units="in"
     inkscape:zoom="0.098605226"
     inkscape:cx="1942.0877"
     inkscape:cy="1881.239"
     inkscape:window-width="1330"
     inkscape:window-height="1050"
     inkscape:window-x="120"
     inkscape:window-y="123"
     inkscape:window-maximized="0"
     inkscape:current-layer="g8" /><g
     id="g8"
     inkscape:groupmode="layer"
     inkscape:label="template-door-sill"
     transform="matrix(1.3333333,0,0,-1.3333333,0,509.33333)"><g
       id="g10"
       style="stroke:url(#linearGradient869);fill:none;fill-opacity:1"><g
         id="g12"
         clip-path="url(#clipPath16)"
         style="stroke:url(#linearGradient869);fill:none;fill-opacity:1"><g
           id="g18"
           transform="translate(907.8633,266.4067)"
           style="stroke:url(#linearGradient869);fill:none;fill-opacity:1"><path
             d="m 0,0 c -1.218,-1.309 -2.786,-2.497 -4.431,-3.171 -9.912,-4.067 -19.23,-6.19 -29.98,-5.576 -9.336,0.533 -18.293,2.622 -26.532,7.249 -0.446,0.25 -0.904,0.497 -1.295,0.818 -0.596,0.488 -1.586,0.926 -0.729,1.917 0.663,0.766 1.326,1.443 2.566,0.653 7.157,-4.57 15.117,-6.531 23.496,-7.188 6.263,-0.492 12.49,-0.546 18.552,1.313 2.226,0.683 4.414,1.65 6.435,2.807 4.516,2.585 4.759,6.937 0.668,10.19 -3.496,2.78 -7.678,3.759 -11.982,4.231 -4.512,0.494 -9.042,0.818 -13.564,1.216 l -0.305,0.441 c 6.286,3.602 12.571,7.204 18.855,10.807 -0.032,0.16 -0.065,0.319 -0.098,0.48 -0.602,0.068 -1.205,0.197 -1.807,0.197 -10.802,0.013 -21.604,0.009 -32.406,0.01 -2.77,0 -3.372,-0.184 -2.589,2.61 H -1.79 c 0.05,-0.106 0.101,-0.212 0.15,-0.317 -7.59,-4.157 -15.181,-7.313 -23.167,-11.685 3.767,-0.723 7.071,-1.312 10.353,-1.996 C -9.043,13.877 -4.9,12.115 -0.649,8.381 1.784,6.244 2.213,2.378 0,0 M -142.515,-7.978 V 21.44 l 8.786,0.07 V -4.926 h 38.216 l 0.118,-3.052 z m -12.536,0 h -49.203 v 28.815 h 47.45 v -2.705 h -38.879 V 7.627 h 33.268 V 4.506 h -33.268 v -9.432 h 40.632 z m -97.684,0.098 h -21.861 v 29.215 h 21.861 c 27.325,-0.246 37.033,-7.328 37.033,-14.607 0,-8.239 -9.756,-14.608 -37.033,-14.608 m -34.25,14.608 c 0,-8.387 -12.809,-16.231 -31.728,-16.231 -18.919,-0.025 -31.729,7.746 -31.729,16.132 v 0.099 c 0,8.385 12.88,15.714 31.823,15.714 18.943,0 31.634,-7.255 31.634,-15.641 z M -361.843,-8 h -9.968 V 19.486 L -399.373,-8 -429.313,19.486 V -8 h -4.759 v 32.711 h 8.134 l 27.478,-26.927 26.649,26.927 h 9.968 z m 814.574,92.471 -1.064,0.611 c -1.702,0.978 -3.637,1.866 -5.605,1.867 l -637.328,-0.001 v 0 h -57.391 v 0 l -629.9,0.001 c -1.969,-0.001 -3.903,-0.889 -5.607,-1.867 l -1.064,-0.611 c -4.077,-2.343 -6.22,-6.972 -5.352,-11.557 l 0.09,-0.471 c 0.32,-1.692 1.013,-3.293 2.03,-4.691 l 62.6,-92.05 c 20.931,-23.382 46.171,-40.083 88.789,-40.083 l 143.142,-1.336 301.187,-1.757 44.085,-0.178 v -0.11 h 27.452 0.137 9.641 0.136 20.025 v 0.081 l 51.512,0.207 301.188,1.757 143.141,1.336 c 42.618,0 67.858,16.701 88.788,40.083 l 62.602,92.05 c 1.015,1.398 1.709,2.999 2.029,4.691 l 0.09,0.471 c 0.868,4.585 -1.275,9.214 -5.353,11.557"
             style="fill:none;fill-opacity:1;fill-rule:nonzero;stroke:url(#linearGradient869)"
             id="path20" /></g><g
           id="g22"
           transform="translate(655.8623,285.0371)"
           style="stroke:url(#linearGradient869);fill:none;fill-opacity:1"><path
             d="M 0,0 H -15.095 V -23.633 H 0 c 16.385,0 26.97,3.516 26.828,11.73 v 0.098 C 26.828,-3.345 16.362,0 0,0"
             style="fill:none;fill-opacity:1;fill-rule:nonzero;stroke:url(#linearGradient869)"
             id="path24" /></g><g
           id="g26"
           transform="translate(589.1733,286.2666)"
           style="stroke:url(#linearGradient869);fill:none;fill-opacity:1"><path
             d="m 0,0 c -13.118,0 -22.897,-5.042 -22.897,-12.862 0,-7.82 9.779,-13.501 22.897,-13.501 13.118,-0.025 22.684,5.681 22.684,13.501 C 22.684,-5.042 13.118,0 0,0"
             style="fill:none;fill-opacity:1;fill-rule:nonzero;stroke:url(#linearGradient869)"
             id="path28" /></g><g
           id="g30"
           transform="translate(1770.1592,276.4902)"
           style="stroke:url(#linearGradient869);fill:none;fill-opacity:1"><path
             d="m 0,0 h -105.857 c 1.521,4.334 6.316,10.466 14.384,10.466 h 77.134 C -6.823,10.466 -1.521,4.334 0,0 m -0.646,27.571 h -105.857 c 1.522,4.334 6.362,10.466 14.385,10.466 h 77.134 c 7.515,0 12.817,-6.132 14.338,-10.466 m -105.857,-54.589 c 1.522,4.334 6.362,10.466 14.385,10.466 h 77.134 c 7.515,0 12.817,-6.132 14.338,-10.466 z m 443.149,-37.649 -0.047,0.471 c -0.171,1.692 -0.541,3.294 -1.083,4.69 l -33.412,97.052 c -11.17,23.382 -24.641,40.083 -47.387,40.083 l -76.396,6.336 -190.747,5.756 h -81.651 l -190.747,-5.756 -76.397,-6.336 c -22.745,0 -36.216,-16.701 -47.386,-40.083 l -33.412,-97.052 c -0.542,-1.396 -0.912,-2.998 -1.083,-4.69 l -0.047,-0.471 c -0.464,-4.585 0.68,-9.214 2.856,-11.557 l 0.568,-0.611 c 0.909,-0.978 1.941,-1.866 2.992,-1.867 l 366.184,0.002 v -10e-4 h 30.631 v 10e-4 l 370.147,-0.002 c 1.052,0.001 2.083,0.889 2.993,1.867 l 0.568,0.611 c 2.176,2.343 3.32,6.972 2.856,11.557"
             style="fill:none;fill-opacity:1;fill-rule:nonzero;stroke:url(#linearGradient869)"
             id="path32" /></g><g
           id="g34"
           transform="translate(907.8633,90.916)"
           style="stroke:url(#linearGradient869);fill:none;fill-opacity:1"><path
             d="m 0,0 c -1.218,-1.31 -2.786,-2.498 -4.431,-3.172 -9.912,-4.066 -19.23,-6.189 -29.98,-5.576 -9.336,0.533 -18.293,2.622 -26.532,7.25 -0.446,0.25 -0.904,0.496 -1.295,0.817 -0.596,0.489 -1.586,0.926 -0.729,1.917 0.663,0.767 1.326,1.444 2.566,0.653 7.157,-4.569 15.117,-6.531 23.496,-7.188 6.263,-0.491 12.49,-0.546 18.552,1.314 2.226,0.682 4.414,1.649 6.435,2.806 4.516,2.585 4.759,6.938 0.668,10.191 -3.496,2.779 -7.678,3.759 -11.982,4.23 -4.512,0.494 -9.042,0.819 -13.564,1.217 -0.101,0.146 -0.203,0.294 -0.305,0.441 6.286,3.602 12.571,7.204 18.855,10.806 -0.032,0.16 -0.065,0.32 -0.098,0.48 -0.602,0.069 -1.205,0.198 -1.807,0.198 -10.802,0.012 -21.604,0.009 -32.406,0.009 -2.77,10e-4 -3.372,-0.183 -2.589,2.611 H -1.79 c 0.05,-0.107 0.101,-0.212 0.15,-0.317 -7.59,-4.157 -15.181,-7.314 -23.167,-11.686 3.767,-0.723 7.071,-1.311 10.353,-1.996 C -9.043,13.876 -4.9,12.115 -0.649,8.381 1.784,6.243 2.213,2.378 0,0 m -142.515,-7.979 v 29.418 l 8.786,0.07 V -4.927 h 38.216 l 0.118,-3.052 z m -12.536,0 h -49.203 v 28.815 h 47.45 v -2.704 h -38.879 V 7.627 h 33.268 V 4.506 h -33.268 v -9.433 h 40.632 z m -97.684,0.098 h -21.861 v 29.216 h 21.861 c 27.325,-0.246 37.033,-7.329 37.033,-14.608 0,-8.239 -9.756,-14.608 -37.033,-14.608 m -34.25,14.608 c 0,-8.386 -12.809,-16.231 -31.728,-16.231 -18.919,-0.024 -31.729,7.746 -31.729,16.133 v 0.098 c 0,8.386 12.88,15.714 31.823,15.714 18.943,0 31.634,-7.254 31.634,-15.64 z m -74.858,-14.728 h -9.968 v 27.487 l -27.562,-27.487 -29.94,27.487 V -8.001 h -4.759 v 32.712 h 8.134 l 27.478,-26.928 26.649,26.928 h 9.968 z m 814.574,92.471 -1.064,0.611 c -1.702,0.979 -3.637,1.866 -5.605,1.867 l -637.328,-10e-4 v 10e-4 h -57.391 v -10e-4 l -629.9,10e-4 c -1.969,-10e-4 -3.903,-0.888 -5.607,-1.867 l -1.064,-0.611 c -4.077,-2.342 -6.22,-6.971 -5.352,-11.556 l 0.09,-0.472 c 0.32,-1.691 1.013,-3.293 2.03,-4.69 l 62.6,-92.051 c 20.931,-23.382 46.171,-40.083 88.789,-40.083 l 143.142,-1.337 301.187,-1.756 44.085,-0.177 v -0.111 h 27.452 0.137 9.641 0.136 20.025 v 0.081 l 51.512,0.207 301.188,1.756 143.141,1.337 c 42.618,0 67.858,16.701 88.788,40.083 l 62.602,92.051 c 1.015,1.397 1.709,2.999 2.029,4.69 l 0.09,0.472 c 0.868,4.585 -1.275,9.214 -5.353,11.556"
             style="fill:none;fill-opacity:1;fill-rule:nonzero;stroke:url(#linearGradient869)"
             id="path36" /></g><g
           id="g38"
           transform="translate(655.8623,109.5459)"
           style="stroke:url(#linearGradient869);fill:none;fill-opacity:1"><path
             d="M 0,0 H -15.095 V -23.634 H 0 c 16.385,0 26.97,3.517 26.828,11.731 v 0.098 C 26.828,-3.345 16.362,0 0,0"
             style="fill:none;fill-opacity:1;fill-rule:nonzero;stroke:url(#linearGradient869)"
             id="path40" /></g><g
           id="g42"
           transform="translate(589.1733,110.7754)"
           style="stroke:url(#linearGradient869);fill:none;fill-opacity:1"><path
             d="m 0,0 c -13.118,0 -22.897,-5.042 -22.897,-12.862 0,-7.821 9.779,-13.501 22.897,-13.501 13.118,-0.025 22.684,5.68 22.684,13.501 C 22.684,-5.042 13.118,0 0,0"
             style="fill:none;fill-opacity:1;fill-rule:nonzero;stroke:url(#linearGradient869)"
             id="path44" /></g><g
           id="g46"
           transform="translate(1770.1592,100.999)"
           style="stroke:url(#linearGradient869);fill:none;fill-opacity:1"><path
             d="m 0,0 h -105.857 c 1.521,4.334 6.316,10.466 14.384,10.466 h 77.134 C -6.823,10.466 -1.521,4.334 0,0 m -0.646,27.571 h -105.857 c 1.522,4.334 6.362,10.466 14.385,10.466 h 77.134 c 7.515,0 12.817,-6.132 14.338,-10.466 m -105.857,-54.589 c 1.522,4.334 6.362,10.466 14.385,10.466 h 77.134 c 7.515,0 12.817,-6.132 14.338,-10.466 z m 443.149,-37.649 -0.047,0.471 c -0.171,1.692 -0.541,3.294 -1.083,4.69 l -33.412,97.052 c -11.17,23.382 -24.641,40.083 -47.387,40.083 l -76.396,6.336 -190.747,5.757 h -81.651 l -190.747,-5.757 -76.397,-6.336 c -22.745,0 -36.216,-16.701 -47.386,-40.083 l -33.412,-97.052 c -0.542,-1.396 -0.912,-2.998 -1.083,-4.69 l -0.047,-0.471 c -0.464,-4.585 0.68,-9.214 2.856,-11.557 l 0.568,-0.611 c 0.909,-0.978 1.941,-1.866 2.992,-1.867 l 366.184,0.002 v -10e-4 h 30.631 v 10e-4 l 370.147,-0.002 c 1.052,0.001 2.083,0.889 2.993,1.867 l 0.568,0.611 c 2.176,2.343 3.32,6.972 2.856,11.557"
             style="fill:none;fill-opacity:1;fill-rule:nonzero;stroke:url(#linearGradient869)"
             id="path48" /></g></g></g></g></svg>
