<?xml version="1.0" encoding="UTF-8" standalone="no"?>
<!-- Created with Inkscape (http://www.inkscape.org/) -->

<svg
   version="1.1"
   id="svg2"
   xml:space="preserve"
   width="11in"
   height="8.5in"
   viewBox="0 0 1056 816"
   sodipodi:docname="template-door-switch-2.svg"
   inkscape:version="1.1.2 (b8e25be833, 2022-02-05)"
   xmlns:inkscape="http://www.inkscape.org/namespaces/inkscape"
   xmlns:sodipodi="http://sodipodi.sourceforge.net/DTD/sodipodi-0.dtd"
   xmlns:xlink="http://www.w3.org/1999/xlink"
   xmlns="http://www.w3.org/2000/svg"
   xmlns:svg="http://www.w3.org/2000/svg"><defs
     id="defs6"><linearGradient
       id="linearGradient1447"
       inkscape:swatch="solid"><stop
         style="stop-color:#000000;stop-opacity:1;"
         offset="0"
         id="stop1445" /></linearGradient><linearGradient
       id="linearGradient1441"
       inkscape:swatch="solid"><stop
         style="stop-color:#000000;stop-opacity:1;"
         offset="0"
         id="stop1439" /></linearGradient><linearGradient
       id="linearGradient1435"
       inkscape:swatch="solid"><stop
         style="stop-color:#000000;stop-opacity:1;"
         offset="0"
         id="stop1433" /></linearGradient><linearGradient
       id="linearGradient1429"
       inkscape:swatch="solid"><stop
         style="stop-color:#000000;stop-opacity:1;"
         offset="0"
         id="stop1427" /></linearGradient><linearGradient
       id="linearGradient1423"
       inkscape:swatch="solid"><stop
         style="stop-color:#000000;stop-opacity:1;"
         offset="0"
         id="stop1421" /></linearGradient><linearGradient
       id="linearGradient1417"
       inkscape:swatch="solid"><stop
         style="stop-color:#000000;stop-opacity:1;"
         offset="0"
         id="stop1415" /></linearGradient><linearGradient
       id="linearGradient1411"
       inkscape:swatch="solid"><stop
         style="stop-color:#000000;stop-opacity:1;"
         offset="0"
         id="stop1409" /></linearGradient><linearGradient
       id="linearGradient1405"
       inkscape:swatch="solid"><stop
         style="stop-color:#000000;stop-opacity:1;"
         offset="0"
         id="stop1403" /></linearGradient><linearGradient
       id="linearGradient1399"
       inkscape:swatch="solid"><stop
         style="stop-color:#000000;stop-opacity:1;"
         offset="0"
         id="stop1397" /></linearGradient><linearGradient
       id="linearGradient1393"
       inkscape:swatch="solid"><stop
         style="stop-color:#000000;stop-opacity:1;"
         offset="0"
         id="stop1391" /></linearGradient><linearGradient
       id="linearGradient1387"
       inkscape:swatch="solid"><stop
         style="stop-color:#000000;stop-opacity:1;"
         offset="0"
         id="stop1385" /></linearGradient><linearGradient
       id="linearGradient1381"
       inkscape:swatch="solid"><stop
         style="stop-color:#000000;stop-opacity:1;"
         offset="0"
         id="stop1379" /></linearGradient><linearGradient
       id="linearGradient1375"
       inkscape:swatch="solid"><stop
         style="stop-color:#000000;stop-opacity:1;"
         offset="0"
         id="stop1373" /></linearGradient><linearGradient
       id="linearGradient1369"
       inkscape:swatch="solid"><stop
         style="stop-color:#000000;stop-opacity:1;"
         offset="0"
         id="stop1367" /></linearGradient><linearGradient
       id="linearGradient961"
       inkscape:swatch="solid"><stop
         style="stop-color:#000000;stop-opacity:1;"
         offset="0"
         id="stop959" /></linearGradient><clipPath
       clipPathUnits="userSpaceOnUse"
       id="clipPath16"><path
         d="M 0,700.005 H 850 V 0 H 0 Z"
         id="path14" /></clipPath><linearGradient
       inkscape:collect="always"
       xlink:href="#linearGradient961"
       id="linearGradient963"
       x1="1"
       y1="355.97635"
       x2="849.00208"
       y2="355.97635"
       gradientUnits="userSpaceOnUse" /><linearGradient
       inkscape:collect="always"
       xlink:href="#linearGradient1369"
       id="linearGradient1371"
       x1="-101.164"
       y1="29.89"
       x2="30.836"
       y2="29.89"
       gradientUnits="userSpaceOnUse" /><linearGradient
       inkscape:collect="always"
       xlink:href="#linearGradient1375"
       id="linearGradient1377"
       x1="-46.77997"
       y1="10.400933"
       x2="12.40298"
       y2="10.400933"
       gradientUnits="userSpaceOnUse" /><linearGradient
       inkscape:collect="always"
       xlink:href="#linearGradient1381"
       id="linearGradient1383"
       x1="202.81226"
       y1="160.1916"
       x2="667.92326"
       y2="160.1916"
       gradientUnits="userSpaceOnUse"
       gradientTransform="translate(10.5)" /><linearGradient
       inkscape:collect="always"
       xlink:href="#linearGradient1387"
       id="linearGradient1389"
       x1="-43.301"
       y1="-100.8275"
       x2="71.022"
       y2="-100.8275"
       gradientUnits="userSpaceOnUse" /><linearGradient
       inkscape:collect="always"
       xlink:href="#linearGradient1393"
       id="linearGradient1395"
       x1="-35.793796"
       y1="-100.6715"
       x2="72.521"
       y2="-100.6715"
       gradientUnits="userSpaceOnUse" /><linearGradient
       inkscape:collect="always"
       xlink:href="#linearGradient1399"
       id="linearGradient1401"
       x1="-14.985894"
       y1="8.9517238"
       x2="44.19797"
       y2="8.9517238"
       gradientUnits="userSpaceOnUse" /><linearGradient
       inkscape:collect="always"
       xlink:href="#linearGradient1405"
       id="linearGradient1407"
       x1="-81.174"
       y1="-93.741"
       x2="33.149"
       y2="-93.741"
       gradientUnits="userSpaceOnUse" /><linearGradient
       inkscape:collect="always"
       xlink:href="#linearGradient1411"
       id="linearGradient1413"
       x1="-39.523747"
       y1="13.806902"
       x2="17.371678"
       y2="13.806902"
       gradientUnits="userSpaceOnUse" /><linearGradient
       inkscape:collect="always"
       xlink:href="#linearGradient1417"
       id="linearGradient1419"
       x1="-19.671833"
       y1="11.94376"
       x2="37.223746"
       y2="11.94376"
       gradientUnits="userSpaceOnUse" /><linearGradient
       inkscape:collect="always"
       xlink:href="#linearGradient1423"
       id="linearGradient1425"
       x1="-83.543"
       y1="-93.4015"
       x2="24.772006"
       y2="-93.4015"
       gradientUnits="userSpaceOnUse" /><linearGradient
       inkscape:collect="always"
       xlink:href="#linearGradient1429"
       id="linearGradient1431"
       x1="-6.4205188"
       y1="-71.969"
       x2="104.60867"
       y2="-71.969"
       gradientUnits="userSpaceOnUse" /><linearGradient
       inkscape:collect="always"
       xlink:href="#linearGradient1435"
       id="linearGradient1437"
       x1="-3.1792285"
       y1="-85.5"
       x2="109.74621"
       y2="-85.5"
       gradientUnits="userSpaceOnUse" /><linearGradient
       inkscape:collect="always"
       xlink:href="#linearGradient1441"
       id="linearGradient1443"
       x1="-32.33"
       y1="-4.998"
       x2="21.792"
       y2="-4.998"
       gradientUnits="userSpaceOnUse" /><linearGradient
       inkscape:collect="always"
       xlink:href="#linearGradient1447"
       id="linearGradient1449"
       x1="-132.36046"
       y1="64.717"
       x2="81.921021"
       y2="64.717"
       gradientUnits="userSpaceOnUse" /><linearGradient
       inkscape:collect="always"
       xlink:href="#linearGradient1369"
       id="linearGradient1469"
       gradientUnits="userSpaceOnUse"
       x1="-101.164"
       y1="29.89"
       x2="30.836"
       y2="29.89" /><linearGradient
       inkscape:collect="always"
       xlink:href="#linearGradient1375"
       id="linearGradient1471"
       gradientUnits="userSpaceOnUse"
       x1="-46.77997"
       y1="10.400933"
       x2="12.40298"
       y2="10.400933" /><linearGradient
       inkscape:collect="always"
       xlink:href="#linearGradient1387"
       id="linearGradient1473"
       gradientUnits="userSpaceOnUse"
       x1="-43.301"
       y1="-100.8275"
       x2="71.022"
       y2="-100.8275" /><linearGradient
       inkscape:collect="always"
       xlink:href="#linearGradient1393"
       id="linearGradient1475"
       gradientUnits="userSpaceOnUse"
       x1="-35.793796"
       y1="-100.6715"
       x2="72.521"
       y2="-100.6715" /><linearGradient
       inkscape:collect="always"
       xlink:href="#linearGradient1399"
       id="linearGradient1477"
       gradientUnits="userSpaceOnUse"
       x1="-14.985894"
       y1="8.9517238"
       x2="44.19797"
       y2="8.9517238" /><linearGradient
       inkscape:collect="always"
       xlink:href="#linearGradient1405"
       id="linearGradient1479"
       gradientUnits="userSpaceOnUse"
       x1="-81.174"
       y1="-93.741"
       x2="33.149"
       y2="-93.741" /><linearGradient
       inkscape:collect="always"
       xlink:href="#linearGradient1411"
       id="linearGradient1481"
       gradientUnits="userSpaceOnUse"
       x1="-39.523747"
       y1="13.806902"
       x2="17.371678"
       y2="13.806902" /><linearGradient
       inkscape:collect="always"
       xlink:href="#linearGradient1417"
       id="linearGradient1483"
       gradientUnits="userSpaceOnUse"
       x1="-19.671833"
       y1="11.94376"
       x2="37.223746"
       y2="11.94376" /><linearGradient
       inkscape:collect="always"
       xlink:href="#linearGradient1423"
       id="linearGradient1485"
       gradientUnits="userSpaceOnUse"
       x1="-83.543"
       y1="-93.4015"
       x2="24.772006"
       y2="-93.4015" /><linearGradient
       inkscape:collect="always"
       xlink:href="#linearGradient1429"
       id="linearGradient1487"
       gradientUnits="userSpaceOnUse"
       x1="-6.4205188"
       y1="-71.969"
       x2="104.60867"
       y2="-71.969" /><linearGradient
       inkscape:collect="always"
       xlink:href="#linearGradient1435"
       id="linearGradient1489"
       gradientUnits="userSpaceOnUse"
       x1="-3.1792285"
       y1="-85.5"
       x2="109.74621"
       y2="-85.5" /><linearGradient
       inkscape:collect="always"
       xlink:href="#linearGradient1441"
       id="linearGradient1491"
       gradientUnits="userSpaceOnUse"
       x1="-32.33"
       y1="-4.998"
       x2="21.792"
       y2="-4.998" /><linearGradient
       inkscape:collect="always"
       xlink:href="#linearGradient1447"
       id="linearGradient1493"
       gradientUnits="userSpaceOnUse"
       x1="-132.36046"
       y1="64.717"
       x2="81.921021"
       y2="64.717" /></defs><sodipodi:namedview
     id="namedview4"
     pagecolor="#505050"
     bordercolor="#eeeeee"
     borderopacity="1"
     inkscape:pageshadow="0"
     inkscape:pageopacity="0"
     inkscape:pagecheckerboard="0"
     showgrid="false"
     units="in"
     inkscape:zoom="0.63714915"
     inkscape:cx="605.03887"
     inkscape:cy="481.04906"
     inkscape:window-width="1580"
     inkscape:window-height="1050"
     inkscape:window-x="155"
     inkscape:window-y="84"
     inkscape:window-maximized="0"
     inkscape:current-layer="g12"
     inkscape:document-units="in" /><g
     id="g8"
     inkscape:groupmode="layer"
     inkscape:label="template-door-switch"
     transform="matrix(1.3333333,0,0,-1.3333333,0,933.34)"><g
       id="g10"
       style="fill:url(#linearGradient963);fill-opacity:1"><g
         id="g12"
         clip-path="url(#clipPath16)"
         style="fill:url(#linearGradient963);fill-opacity:1"><g
           id="g38"
           transform="rotate(90,-140.5447,436.11056)"
           style="fill:none;fill-opacity:1;stroke:url(#linearGradient1449)"><path
             d="m 0,0 c -0.271,-7.721 -6.748,-13.762 -14.469,-13.492 l -28.862,1.008 c -7.722,0.27 -13.762,6.747 -13.492,14.468 l 2.495,71.449 c 0.269,7.721 6.747,13.762 14.469,13.492 l 28.862,-1.008 C -3.276,85.648 2.765,79.17 2.494,71.449 Z m 73.064,243.685 c -0.527,0.546 -3.35,14.032 -3.35,14.032 H 57.579 48.592 34.477 l 3.231,-90.03 c -0.039,-4.501 -3.72,-8.119 -8.222,-8.08 L -72.1,162.459 c -4.561,0.04 -8.226,3.77 -8.186,8.331 l 0.35,40.252 0.408,46.675 h -6.386 -6.768 -32.649 l 2.934,-11 c 0,0 15.399,-5.414 21.601,-43 2.504,-15.172 0.835,-35.585 -0.361,-63 -5.204,-38.348 -8.704,-54.848 -11.204,-63.348 -2.5,-8.5 -15.387,-40.777 -15.387,-40.777 l -1.169,-20.897 c 0,0 -6.081,-62.978 -2.081,-73.147 7,-28.331 37.504,-38.671 44.002,-41.251 6.498,-2.58 154.998,-29.58 154.998,-29.58 l 0.645,27.651 8.355,87.349 c 0,0 4,69.997 4,112.072 0,18.767 1.403,46.324 0.742,71.096 -0.341,12.756 -0.698,24.773 -1,34.471 -0.427,13.691 -1.742,22.761 -1.742,22.761 0,0 -1.724,12.194 -5.938,16.568"
             style="fill:none;fill-opacity:1;fill-rule:nonzero;stroke:url(#linearGradient1493)"
             id="path40" /></g><g
           id="g42"
           transform="rotate(90,-237.29617,317.71179)"
           style="fill:none;fill-opacity:1;stroke:url(#linearGradient1443)"><path
             d="m 0,0 c 0,0.743 -0.657,1.351 -1.461,1.502 h -0.038 -7.54 -0.037 C -9.88,1.351 -10.538,0.743 -10.538,0 c 0,-0.743 0.658,-1.351 1.462,-1.498 h 0.037 7.54 0.038 C -0.657,-1.351 0,-0.743 0,0 m 7.504,-28.498 h -25.545 c -7.377,0 -12.389,5.817 -12.545,13.092 L -32.33,18.502 H 21.792 L 20.049,-15.406 C 19.892,-22.681 14.881,-28.498 7.504,-28.498"
             style="fill:none;fill-opacity:1;fill-rule:nonzero;stroke:url(#linearGradient1491)"
             id="path44" /></g><g
           id="g62"
           transform="translate(264.10166,366.24455)"
           style="fill:none;fill-opacity:1;stroke:url(#linearGradient1437)"><path
             d="m 0,0 h 106.566 c 1.771,0 3.2,-1.446 3.18,-3.217 l -1.926,-164.64 c -0.021,-1.742 -1.438,-3.143 -3.179,-3.143 H 1.926 c -1.742,0 -3.159,1.401 -3.179,3.143 L -3.179,-3.217 C -3.2,-1.446 -1.771,0 0,0"
             style="fill:none;fill-opacity:1;fill-rule:nonzero;stroke:url(#linearGradient1489)"
             id="path64" /></g><g
           id="g66"
           transform="translate(526.20316,366.18205)"
           style="fill:none;fill-opacity:1;stroke:url(#linearGradient1431)"><path
             d="m 0,0 98.189,0.062 c 3.582,0.003 6.47,-2.862 6.419,-6.366 l -1.882,-131.436 c -0.05,-3.436 -2.91,-6.198 -6.42,-6.2 L 1.709,-144 c -3.514,-0.003 -6.374,2.76 -6.419,6.198 L -6.42,-6.367 C -6.465,-2.866 -3.577,-0.002 0,0"
             style="fill:none;fill-opacity:1;fill-rule:nonzero;stroke:url(#linearGradient1487)"
             id="path68" /></g><g
           id="g70"
           transform="translate(111.38626,337.06395)"
           style="fill:none;fill-opacity:1;stroke:url(#linearGradient1425)"><path
             d="m 0,0 c 1.21,-5.219 -19.183,-54.605 -21.581,-57.72 -5.523,-9.728 -14.227,-9.344 -24.441,-8.699 -14.916,0.943 -16.783,3.8 -16.776,10.43 l -0.368,34.381 c 0,0 0.493,22.424 1.854,26.459 0.943,3.316 5.719,2.946 5.956,2.913 L -11.021,7.27 C -3.344,7.351 -1.211,5.218 0,0 m -19.284,-193.782 c -0.008,17.473 -1.76,39.898 1.24,63.667 2.184,17.302 3.767,34.203 7.003,48.332 1.445,6.31 22.004,58.572 34.424,89.897 1.763,4.446 1.346,25.493 1.346,25.493 0,0 -87.607,-0.791 -93.611,0.063 -6.003,0.854 -14.661,1.801 -14.661,1.801 0,0 7.127,-14.718 6.815,-18.737 -1.57,-20.238 11.254,-172.38 11.918,-177.775 0.384,-3.12 4.216,-49.402 4.059,-52.193 -0.154,-3.306 -0.994,-9.04 -0.994,-9.04 0,0 43.003,0.482 45.347,0.416 -0.067,0.158 -2.882,19.839 -2.886,28.076"
             style="fill:none;fill-opacity:1;fill-rule:nonzero;stroke:url(#linearGradient1485)"
             id="path72" /></g><g
           id="g74"
           transform="translate(119.63926,144.84715)"
           style="fill:none;fill-opacity:1;stroke:url(#linearGradient1419)"><path
             d="M 0,0 13.174,2.19 C 14.571,2.423 15.822,1.965 15.954,1.172 16.085,0.379 15.05,-0.46 13.653,-0.691 L 0.479,-2.882 C -0.918,-3.114 -2.169,-2.656 -2.3,-1.863 -2.432,-1.07 -1.397,-0.231 0,0 m -17.497,13.401 6.29,-31.259 c 1.537,-6.228 3.093,-8.691 16.845,-6.967 9.418,1.18 17.832,1.797 21.18,11.617 1.645,3.253 9.695,52.845 10.404,57.408 0.063,1.299 -1.556,6.201 -8.537,4.799 l -43.242,-7.311 c -0.221,-0.011 -4.722,-0.61 -4.921,-3.686 -0.541,-3.911 0.029,-13.594 1.981,-24.601"
             style="fill:none;fill-opacity:1;fill-rule:nonzero;stroke:url(#linearGradient1483)"
             id="path76" /></g><g
           id="g78"
           transform="translate(528.11927,427.84652)"
           style="fill:none;fill-opacity:1;stroke:url(#linearGradient1413)"><path
             d="m 0,0 c -0.132,-0.793 -1.383,-1.251 -2.78,-1.019 l -13.174,2.191 c -1.398,0.231 -2.433,1.07 -2.301,1.863 0.132,0.793 1.383,1.251 2.78,1.019 L -2.301,1.863 C -0.903,1.632 0.132,0.793 0,0 m 17.178,39.865 c -0.199,3.076 -4.7,3.675 -4.922,3.686 l -43.241,7.311 c -6.982,1.403 -8.6,-3.5 -8.537,-4.799 0.708,-4.563 8.758,-54.155 10.403,-57.408 3.348,-9.82 11.762,-10.436 21.18,-11.617 13.752,-1.724 15.309,0.739 16.845,6.967 l 6.289,31.26 c 1.953,11.006 2.524,20.689 1.983,24.6"
             style="fill:none;fill-opacity:1;fill-rule:nonzero;stroke:url(#linearGradient1481)"
             id="path80" /></g><g
           id="g82"
           transform="translate(224.74276,337.40285)"
           style="fill:none;fill-opacity:1;stroke:url(#linearGradient1407)"><path
             d="m 0,0 c -1.583,-4.722 -19.169,-55.963 -21.509,-59.12 -5.346,-9.827 -14.074,-8.603 -24.298,-8.143 -14.93,0.673 -16.849,3.494 -16.963,10.123 l -0.993,34.369 c -0.071,12.053 1.086,22.449 2.373,26.506 0.883,3.333 5.665,3.05 5.902,3.022 l 45.336,0.33 C -2.477,7.307 0.304,1.369 0,0 m 33.149,32.215 c 0,0 -95.613,-0.528 -101.631,0.216 -6.018,0.744 -12.692,1.57 -12.692,1.57 0,0 5.394,-14.622 5.155,-18.646 -1.202,-20.262 14.384,-172.148 15.146,-177.529 0.441,-3.112 5.114,-49.317 5.007,-52.11 -0.093,-3.309 -0.865,-7.058 -0.865,-7.058 0,0 22.009,-0.117 24.354,-0.141 -0.591,1.333 -1.644,5.727 -1.547,6.675 0.024,23.95 -0.644,85.042 -0.114,91.732 1.117,8.822 3.407,18.561 6.644,27.223 23.847,52.108 60.543,128.068 60.543,128.068"
             style="fill:none;fill-opacity:1;fill-rule:nonzero;stroke:url(#linearGradient1479)"
             id="path84" /></g><g
           id="g86"
           transform="translate(394.43466,321.79245)"
           style="fill:none;fill-opacity:1;stroke:url(#linearGradient1401)"><path
             d="m 0,0 13.354,-0.065 c 1.417,-0.007 2.572,-0.671 2.568,-1.474 -0.004,-0.804 -1.166,-1.456 -2.582,-1.449 l -13.355,0.065 c -1.416,0.007 -2.571,0.671 -2.568,1.474 C -2.579,-0.646 -1.417,0.007 0,0 m -14.983,16.163 0.921,-31.873 c 0.463,-6.397 1.581,-9.088 15.427,-9.712 9.482,-0.427 17.88,-1.239 22.838,7.875 2.17,2.929 18.479,50.448 19.947,54.827 0.282,1.27 -0.486,6.375 -7.604,6.171 l -43.855,0.096 c -0.22,0.025 -4.758,0.196 -5.473,-2.802 -1.194,-3.764 -2.267,-13.404 -2.201,-24.582"
             style="fill:none;fill-opacity:1;fill-rule:nonzero;stroke:url(#linearGradient1477)"
             id="path88" /></g><g
           id="g90"
           transform="translate(544.99817,629.19612)"
           style="fill:none;fill-opacity:1;stroke:url(#linearGradient1395)"><path
             d="m 0,0 44.334,0.494 c 0.237,0.033 5.013,0.403 5.956,-2.913 1.36,-4.034 1.855,-26.459 1.855,-26.459 l -0.37,-34.381 c 0.008,-6.63 -1.859,-9.486 -16.775,-10.429 -10.214,-0.646 -18.918,-1.03 -24.441,8.699 -2.398,3.114 -22.791,52.501 -21.58,57.719 C -9.812,-2.052 -7.678,0.081 0,0 m 5.376,-229.128 c 2.344,0.066 45.347,-0.416 45.347,-0.416 0,0 -0.84,5.734 -0.994,9.04 -0.158,2.791 3.675,49.073 4.059,52.193 0.664,5.395 13.488,157.538 11.918,177.776 -0.312,4.018 6.815,18.736 6.815,18.736 0,0 -8.658,-0.947 -14.661,-1.801 -6.004,-0.853 -93.611,-0.063 -93.611,-0.063 0,0 -0.416,-21.047 1.346,-25.492 12.42,-31.325 32.979,-83.587 34.425,-89.898 3.235,-14.129 4.818,-31.03 7.002,-48.332 3,-23.768 1.249,-46.193 1.241,-63.667 -0.004,-8.236 -2.821,-27.918 -2.887,-28.076"
             style="fill:none;fill-opacity:1;fill-rule:nonzero;stroke:url(#linearGradient1475)"
             id="path92" /></g><g
           id="g94"
           transform="translate(677.14366,344.48975)"
           style="fill:none;fill-opacity:1;stroke:url(#linearGradient1389)"><path
             d="m 0,0 45.336,-0.33 c 0.237,0.028 5.019,0.311 5.901,-3.022 1.288,-4.057 2.445,-14.453 2.373,-26.505 l -0.993,-34.37 c -0.113,-6.628 -2.032,-9.45 -16.962,-10.123 -10.224,-0.46 -18.952,-1.684 -24.298,8.143 -2.34,3.157 -19.925,54.398 -21.509,59.12 C -10.455,-5.718 -7.675,0.22 0,0 m 17.242,-102.939 c 3.237,-8.663 5.528,-18.402 6.645,-27.224 0.529,-6.69 -0.139,-67.782 -0.116,-91.732 0.098,-0.948 -0.956,-5.342 -1.545,-6.675 2.344,0.024 24.353,0.141 24.353,0.141 0,0 -0.771,3.749 -0.865,7.058 -0.108,2.793 4.565,48.998 5.007,52.11 0.761,5.381 16.348,157.267 15.146,177.53 -0.239,4.023 5.155,18.646 5.155,18.646 0,0 -6.673,-0.827 -12.692,-1.571 -6.017,-0.744 -101.631,-0.216 -101.631,-0.216 0,0 36.697,-75.96 60.543,-128.067"
             style="fill:none;fill-opacity:1;fill-rule:nonzero;stroke:url(#linearGradient1473)"
             id="path96" /></g><path
           d="m 564.74826,135.09635 h -34.984 v 15.744 h 34.984 z m -203.777,0 h -34.984 v 15.744 h 34.984 z m 305.952,53.725 c 0,0 -16.125,-22 -40.75,-22.125 -9.676,-1.007 -95.641,-1.511 -180.306,-1.511 -84.665,0 -170.629,0.504 -180.305,1.511 -24.625,0.125 -40.75,22.125 -40.75,22.125 l -11.5,20.375 c 0,0 0.608,-17.552 1.125,-23.75 1.18,-14.164 4.223,-45.071 21,-56.875 25.583,-18 62.331,-16.142 103.997,-16.911 30.21,-0.556 99.835,-0.473 106.433,-0.464 6.598,-0.009 76.223,-0.092 106.434,0.464 41.666,0.769 78.413,-1.089 103.997,16.911 16.776,11.804 19.819,42.711 21,56.875 0.515,6.198 1.125,23.75 1.125,23.75 z"
           style="fill:none;fill-opacity:1;fill-rule:nonzero;stroke:url(#linearGradient1383)"
           id="path98" /><g
           id="g100"
           transform="translate(500.67296,320.34325)"
           style="fill:none;fill-opacity:1;stroke:url(#linearGradient1377)"><path
             d="m 0,0 c 0.004,-0.803 -1.151,-1.467 -2.567,-1.474 l -13.355,-0.065 c -1.417,-0.007 -2.578,0.645 -2.583,1.449 -0.004,0.803 1.152,1.467 2.568,1.474 L -2.582,1.449 C -1.166,1.456 -0.004,0.804 0,0 M 10.2,42.194 C 9.484,45.192 4.946,45.021 4.727,44.996 L -39.128,44.9 c -7.118,0.204 -7.886,-4.901 -7.604,-6.171 1.468,-4.378 17.777,-51.898 19.947,-54.827 4.958,-9.114 13.355,-8.301 22.838,-7.875 13.845,0.624 14.964,3.315 15.426,9.712 L 12.4,17.612 c 0.067,11.178 -1.006,20.819 -2.2,24.582"
             style="fill:none;fill-opacity:1;fill-rule:nonzero;stroke:url(#linearGradient1471)"
             id="path102" /></g><g
           id="g104"
           transform="translate(481.82236,206.51905)"
           style="fill:none;fill-opacity:1;stroke:url(#linearGradient1371)"><path
             d="m 0,0 h -70.879 c -7.371,0 -11.82,5.635 -13.218,9.617 H 13.176 C 11.777,5.635 6.905,0 0,0 M 13.769,34.952 C 12.37,30.97 7.498,25.335 0.593,25.335 h -70.879 c -7.414,0 -11.819,5.635 -13.218,9.617 z M 13.176,59.779 C 11.777,55.797 6.905,50.162 0,50.162 h -70.879 c -7.371,0 -11.82,5.635 -13.218,9.617 z m -48.34,36.111 c -36.451,0 -66,-29.549 -66,-66 0,-36.452 29.549,-66 66,-66 36.45,0 66,29.548 66,66 0,36.451 -29.55,66 -66,66"
             style="fill:none;fill-opacity:1;fill-rule:nonzero;stroke:url(#linearGradient1469)"
             id="path106" /></g></g></g></g></svg>
